<?xml version="1.0" encoding="utf-8"?>
<!-- Generator: Adobe Illustrator 24.3.0, SVG Export Plug-In . SVG Version: 6.00 Build 0)  -->
<svg version="1.1" id="Layer_1" xmlns="http://www.w3.org/2000/svg" xmlns:xlink="http://www.w3.org/1999/xlink" x="0px" y="0px"
	 viewBox="0 0 1191.2 324.1" style="enable-background:new 0 0 1191.2 324.1;" xml:space="preserve">
<style type="text/css">
	.st0{fill:none;stroke:#00FFFF;stroke-miterlimit:10;}
	.st1{fill:#00FFFF;}
	.st2{font-family:'Poppins-Medium';}
	.st3{font-size:234.5409px;}
</style>
<g>
	<g>
		<path class="st0" d="M396.5,102.5c0,0-5.1,6.5-12.9-0.8c0,0-8.1,2.1-10.3-5.5c0,0-3.8,1.1-4.9-2c0,0-7.4,4.6-12-3.2
			c0,0-5.3-1.3-6.3-7.6c-1-6.2,3.1-9.9,3.1-9.9s-1.4-4.2,3.1-5.9c0,0,0.4-8.3,9.5-8.9c0,0,4-12.6,20-9.9c0,0,7.1-6.8,16.1-0.4
			c0,0,4.8-2.2,7.3,2.7c0,0,8.7-1.7,13.6,7c0,0,6.6-0.7,9,6.7c0,0,5.3,2.2,5.2,8.3c0,0,4,2.8,2.3,9c0,0,2.2,3.9,0.5,7.7
			s-3.3,4.7-3.3,4.7s0.2,10.3-6.7,14.6c-7,4.3-19.1-0.7-19.1-0.7"/>
		<g>
			<rect x="388" y="71.3" class="st0" width="14.3" height="14.3"/>
			<rect x="388.8" y="70" class="st0" width="0.9" height="16.9"/>
			<rect x="390.8" y="70" class="st0" width="0.9" height="16.9"/>
			<rect x="392.7" y="70" class="st0" width="0.9" height="16.9"/>
			<rect x="394.6" y="70" class="st0" width="0.9" height="16.9"/>
			<rect x="396.5" y="70" class="st0" width="0.9" height="16.9"/>
			<rect x="398.5" y="70" class="st0" width="0.9" height="16.9"/>
			<rect x="400.4" y="70" class="st0" width="0.9" height="16.9"/>
			<rect x="386.6" y="83.8" class="st0" width="16.9" height="0.9"/>
			<rect x="386.6" y="81.8" class="st0" width="16.9" height="0.9"/>
			<rect x="386.6" y="79.9" class="st0" width="16.9" height="0.9"/>
			<rect x="386.6" y="78" class="st0" width="16.9" height="0.9"/>
			<rect x="386.6" y="76.1" class="st0" width="16.9" height="0.9"/>
			<rect x="386.6" y="74.1" class="st0" width="16.9" height="0.9"/>
			<rect x="386.6" y="72.2" class="st0" width="16.9" height="0.9"/>
		</g>
		<polyline class="st0" points="365.6,58.7 380.4,72.7 388.2,72.7 		"/>
		<polyline class="st0" points="362.3,59.4 377.6,74.6 388.2,74.6 		"/>
		<polyline class="st0" points="402.3,78.4 411.5,78.4 436.2,94.6 		"/>
		<polyline class="st0" points="356.1,67.6 367.9,80.3 388,80.3 		"/>
		<polyline class="st0" points="353.1,73.6 361,82.3 388,82.3 		"/>
		<line class="st0" x1="362.7" y1="67.6" x2="370.5" y2="67.6"/>
		<line class="st0" x1="368.2" y1="72.7" x2="367.9" y2="80.3"/>
		<path class="st0" d="M362.5,67.6c0,0.5-0.4,1-1,1s-1-0.4-1-1s0.4-1,1-1C362.1,66.7,362.5,67.1,362.5,67.6z"/>
		<line class="st0" x1="381.5" y1="61.7" x2="389.3" y2="61.7"/>
		<path class="st0" d="M381.3,61.7c0,0.5-0.4,1-1,1s-1-0.4-1-1s0.4-1,1-1S381.3,61.1,381.3,61.7z"/>
		<line class="st0" x1="408.6" y1="67" x2="400.8" y2="67"/>
		<path class="st0" d="M408.8,67c0,0.5,0.4,1,1,1s1-0.4,1-1s-0.4-1-1-1S408.8,66.5,408.8,67z"/>
		<line class="st0" x1="417.6" y1="91.7" x2="409.8" y2="91.7"/>
		<circle class="st0" cx="418.8" cy="91.7" r="1"/>
		<circle class="st0" cx="403.3" cy="91.3" r="1"/>
		<line class="st0" x1="422.8" y1="99.1" x2="410.3" y2="99.1"/>
		<path class="st0" d="M422.8,99.1c0,0.6,0.5,1.1,1.1,1.1s1.1-0.5,1.1-1.1s-0.5-1.1-1.1-1.1C423.3,98,422.8,98.5,422.8,99.1z"/>
		<path class="st0" d="M406,102.4c0,0.6,0.5,1.1,1.1,1.1s1.1-0.5,1.1-1.1s-0.5-1.1-1.1-1.1S406,101.8,406,102.4z"/>
		<path class="st0" d="M400.5,98.6c0,0.6,0.5,1.1,1.1,1.1s1.1-0.5,1.1-1.1s-0.5-1.1-1.1-1.1C401,97.5,400.5,98,400.5,98.6z"/>
		<path class="st0" d="M392.9,95.7c0,0.6,0.5,1.1,1.1,1.1s1.1-0.5,1.1-1.1s-0.5-1.1-1.1-1.1S392.9,95.1,392.9,95.7z"/>
		<path class="st0" d="M386.6,100.6c0,0.6,0.5,1.1,1.1,1.1s1.1-0.5,1.1-1.1s-0.5-1.1-1.1-1.1C387.1,99.5,386.6,100,386.6,100.6z"/>
		<path class="st0" d="M428,83.4c0,0.5,0.4,1,1,1s1-0.4,1-1s-0.4-1-1-1S428,82.9,428,83.4z"/>
		<path class="st0" d="M369.2,71.3c0,0.5-0.4,1-1,1s-1-0.4-1-1s0.4-1,1-1C368.8,70.3,369.2,70.7,369.2,71.3z"/>
		<circle class="st0" cx="369.5" cy="90.7" r="1"/>
		<polyline class="st0" points="388.2,84.2 379.7,84.2 373.2,96.2 		"/>
		<line class="st0" x1="370.1" y1="89.7" x2="374" y2="82.3"/>
		<circle class="st0" cx="357.6" cy="88.8" r="1"/>
		<line class="st0" x1="358.2" y1="87.8" x2="361" y2="82.3"/>
		<polyline class="st0" points="389.3,71.3 389.3,58 385.7,48.8 		"/>
		<polyline class="st0" points="401.8,48.5 395,57 395,71.3 		"/>
		<polyline class="st0" points="409.1,51.2 400.8,62.4 400.8,71.3 		"/>
		<polyline class="st0" points="422.6,58.2 411.5,74.6 402.3,74.6 		"/>
		<polyline class="st0" points="431.6,64.8 423.3,76.5 402.3,76.5 		"/>
		<line class="st0" x1="436.9" y1="72.9" x2="429.6" y2="82.7"/>
		<path class="st0" d="M433.3,88.7c0,0.5,0.4,1,1,1s1-0.4,1-1s-0.4-1-1-1S433.3,88.2,433.3,88.7z"/>
		<line class="st0" x1="439.2" y1="81.8" x2="434.8" y2="87.7"/>
		<polyline class="st0" points="402.3,84.2 408.6,84.2 410.3,108.5 		"/>
		<polyline class="st0" points="383.5,101.7 388.8,91.3 402.1,91.3 		"/>
	</g>
	<path class="st1" d="M314.2,189c0-27.1-14.7-41-37-41c-22.5,0-37.2,13.9-37.2,41v82.5h-30.5V123.9H240v16.9
		c9.9-12.1,26.3-19.3,43.9-19.3c34.6,0,60.5,21.7,60.5,63v87.1h-30.3L314.2,189L314.2,189z"/>
	<path class="st1" d="M383.4,123.9h30.5v147.6h-30.5V123.9z"/>
	<path class="st1" d="M663.3,189c0-27.1-14.7-41-37-41c-22.5,0-37.2,13.9-37.2,41v82.5h-30.3V189c0-27.1-14.7-41-37-41
		c-22.5,0-37.2,13.9-37.2,41v82.5h-30.5V123.9h30.5v16.9c9.9-12.1,26-19.3,43.7-19.3c23.3,0,42.9,9.9,53,29.2
		c9.1-17.9,30-29.2,51.4-29.2c34.6,0,60.8,21.7,60.8,63v87.1h-30.3L663.3,189L663.3,189z"/>
	<path class="st1" d="M796.5,274c-42.1,0-73.9-30-73.9-76.4s33.2-76.1,75.3-76.1c42.1,0,75.3,29.7,75.3,76.1S838.8,274,796.5,274z
		 M796.5,247.4c22.8,0,45.3-16.3,45.3-49.8s-21.7-49.6-44.5-49.6c-23,0-43.7,16.1-43.7,49.6C753.6,231.1,773.4,247.4,796.5,247.4z"
		/>
	<g>
		<path class="st1" d="M139.5,121.5v21.7c-8.3-10.9-23.9-21.7-46.4-21.7c-35.3,0-63.3,27.4-63.3,68.7s28,69.7,62.6,69.7
			c22.5,0,38.5-10.7,47-22.1v33.6h28v-150H139.5z M98.9,235.9c-20.7,0-40.8-16.8-40.8-45.6c0-29,20.1-44.6,40.8-44.6
			c20.9,0,40.5,16.2,40.5,45C139.5,219.6,119.8,235.9,98.9,235.9z"/>
	</g>
	<text transform="matrix(0.9796 0 0 1 884.1982 271.2339)" class="st1 st2 st3">.Ai</text>
</g>
</svg>
